<mxfile host="app.diagrams.net" modified="2023-10-07T15:55:40.990Z" agent="Mozilla/5.0 (iPhone; CPU iPhone OS 17_0 like Mac OS X) AppleWebKit/605.1.15 (KHTML, like Gecko) Version/17.0 Mobile/15E148 Safari/604.1" version="22.0.4" etag="p7XhS6o4u0y-Xk6l5_-0" type="github">
  <diagram name="Page-1" id="5G58MaO7Gi5njmZ3X0AL">
    <mxGraphModel>
      <root>
        <mxCell id="0" />
        <mxCell id="1" parent="0" />
      </root>
    </mxGraphModel>
  </diagram>
</mxfile>
